PathFileType	4	(X/Y/Z)	C:\Users\chris\Desktop\Pose2Sim_Project\videos\pitch1_Sports2D\pitch1_Sports2D_px_person00.trc
DataRate	CameraRate	NumFrames	NumMarkers	Units	OrigDataRate	OrigDataStartFrame	OrigNumFrames
30.0	30.0	4	22	m	30.0	0	110
Frame#	Time	Hip			RHip			RKnee			RAnkle			RBigToe			RSmallToe			RHeel			LHip			LKnee			LAnkle			LBigToe			LSmallToe			LHeel			Neck			Head			Nose			RShoulder			RElbow			RWrist			LShoulder			LElbow			LWrist		
		X1	Y1	Z1	X2	Y2	Z2	X3	Y3	Z3	X4	Y4	Z4	X5	Y5	Z5	X6	Y6	Z6	X7	Y7	Z7	X8	Y8	Z8	X9	Y9	Z9	X10	Y10	Z10	X11	Y11	Z11	X12	Y12	Z12	X13	Y13	Z13	X14	Y14	Z14	X15	Y15	Z15	X16	Y16	Z16	X17	Y17	Z17	X18	Y18	Z18	X19	Y19	Z19	X20	Y20	Z20	X21	Y21	Z21	X22	Y22	Z22
0	0.0	395.3505458715263	354.81673154400147	0.0	356.792223546297	363.1992326442674	0.0	353.43925410832276	509.05120155735125	0.0	353.4391976964258	631.4323834312777	0.0	353.4391446837117	678.3733578990149	0.0	329.9684286691587	671.6675409066145	0.0	358.4684043776613	644.8438307400538	0.0	433.9091786276632	363.1990753498301	0.0	448.99733683947306	502.34551497845274	0.0	470.79130400209186	621.3737410206354	0.0	440.61504715665916	666.6381888987427	0.0	465.7617848179066	664.961674277178	0.0	480.85003489416033	638.1383180425132	0.0	390.32127490892833	136.8768230345572	0.0	400.3799288219967	39.642099397288746	0.0	433.9092383162034	91.61243626427728	0.0	311.52781282847974	175.43527528131165	0.0	301.4688592905827	272.6702822436693	0.0	358.46859692952853	317.93443069839634	0.0	460.73269950418864	173.75896144497352	0.0	480.8499758701711	270.9938992790567	0.0	443.96797543344354	326.31668501332103	0.0
1	0.03333333333333333	395.5637264399735	356.0111988699224	0.0	357.9243111262514	364.01549247277	0.0	353.6249217739171	509.33913485029376	0.0	353.6704794687094	631.1889266819181	0.0	353.6863252471897	677.7805115070994	0.0	331.6205399179372	671.027918988922	0.0	359.23685635679755	647.5389179641104	0.0	435.67250683893093	364.0695421987742	0.0	449.7307626926484	502.72438464141294	0.0	472.70049534641134	620.7530518656113	0.0	440.4240473385879	664.811570503035	0.0	467.04715411835025	663.7787256903471	0.0	481.6801353595717	635.8406729436698	0.0	389.9513733484738	135.94271386668504	0.0	402.3477474157818	39.962010057840125	0.0	435.01802045259063	95.00211936580784	0.0	312.34366083393763	175.45019938588695	0.0	302.50089450081765	273.36631625783883	0.0	361.0184098739709	316.9119021878119	0.0	460.1665554799433	174.14552172541227	0.0	482.48749823983775	270.23059267092793	0.0	443.32657064761236	327.686585483081	0.0
2	0.06666666666666667	396.297604584876	357.19028741292317	0.0	358.7168414320837	364.8839417375815	0.0	354.0971048148957	509.5907870325542	0.0	353.99186142444603	631.1784801869185	0.0	354.1555519461874	677.2962914109697	0.0	332.62357489750616	670.9923525691565	0.0	359.9117921159726	648.5862037883394	0.0	436.6222437086376	364.94296572777705	0.0	450.3328050820141	503.7928387248611	0.0	473.53765198884264	620.6042119830311	0.0	440.48472735083607	664.3432418790826	0.0	467.78484548541917	663.5612490979398	0.0	482.11709831462997	635.091703566267	0.0	390.47862416774973	136.36015654422326	0.0	403.5638750023595	40.86849107954865	0.0	436.0598332846423	96.8354260679354	0.0	313.52315199432735	175.84295154610396	0.0	303.7919945454246	273.96366572771194	0.0	362.0404818875838	316.86050897200147	0.0	460.5731869309054	174.8553666872511	0.0	483.3480501009076	270.7520114893386	0.0	443.06095884577206	329.23020785663914	0.0
3	0.1	397.26225916083024	358.02277143505455	0.0	359.2843888490831	365.44927813313416	0.0	354.9285150853664	509.68506878350746	0.0	354.46314461467387	631.0530952852492	0.0	354.75303489628874	677.0168903590185	0.0	333.0988036547331	671.2098135043369	0.0	360.58900709395886	647.758999746881	0.0	436.7242654297202	365.3126458248789	0.0	450.6799757285818	504.7546558160477	0.0	473.21138008414084	620.7214814110619	0.0	440.6597207461004	664.9931021329735	0.0	467.89833404002127	664.0747232020672	0.0	482.07822871412617	635.600978503878	0.0	391.59486187302025	137.8921302307373	0.0	404.1574952003623	42.26709700471447	0.0	436.60391652000914	97.30001362896873	0.0	314.6693177708658	176.76497087998519	0.0	304.97126946699865	274.5845832285528	0.0	361.99964518493283	317.8241400509377	0.0	461.6092143801217	175.88943292648418	0.0	483.3671257382397	272.3301450729906	0.0	443.5729157865012	330.43476461519464	0.0
